<?xml version="1.0" encoding="UTF-8"?>
<svg id="Layer_1" xmlns="http://www.w3.org/2000/svg" version="1.1" viewBox="0 0 702.18 702.18">
  <!-- Generator: Adobe Illustrator 29.6.0, SVG Export Plug-In . SVG Version: 2.1.1 Build 207)  -->
  <defs>
    <style>
      .st0 {
        fill: #fff;
      }

      .st1 {
        fill: red;
      }
    </style>
  </defs>
  <path d="M114.99,89.12v459.49c-2.15,20.2-7.91,41.62-23.48,55.53l-10.52,6.98h394.5c2.81,0,16.91-7.03,19.83-9.17,21.11-15.49,19.88-40.37,23.82-63.69,33.33-.72,32.52,34.1,21.57,57.07-13.47,28.24-44.19,50.77-75.34,54.66l-372.86.12c-48.44-3.29-86.3-45.14-90.5-92.5l-.05-393.03c.48-13.54,8.42-31.05,22.98-34.02,2.41-.49,10.48-1.44,12.56-1.44h37.5V55.62c0-.38,2.52-2.43,3.26-2.74l428.29-.8c25.02.78,41.39,15.43,43.44,40.56l.05,201.02c-.66,7.73-3.12,13.5-11.54,14.46-10.9,1.25-19.89.03-21.5-12.5l.04-195.04c1.14-3.42-4.76-11.46-7.54-11.46H114.99ZM74.99,169.12h-37v381.5c0,1.32,1.55,8.16,2.06,9.94,4.06,14.07,22.12,18.73,31.37,6.5.55-.73,3.56-6.07,3.56-6.44V169.12Z"/>
  <path d="M159.71,232.33l158.82-.25c3.2-.1,7.91,1.65,9.51,4.49.81,1.43,1.92,10.9,1.95,13.05.62,53.67-2.58,108.16-.95,162.05-.72,6.47-9.21,7.11-14.51,7.49-34.82,2.51-74.94-.65-110.04-1.04-13.4-.15-28.35,2.73-41.77-.24-3.32-.73-6.67-2.48-6.79-6.21-.27-41.03.51-82.08.1-123.1-.16-15.99-2.56-32.91-1.09-49,.33-3.61.77-6.21,4.76-7.24Z"/>
  <path class="st1" d="M590.65,329.61c71.65-6.89,127.05,60.5,104.47,129.47-30.26,92.45-167.51,88.63-188.58-8.95-12.12-56.1,25.62-114.9,84.11-120.52Z"/>
  <path d="M464.78,146.42c4.05-.15,8.11-1.29,11.28,2.13,1.33,9.78,3.04,22.07,1.93,32.07-.33,2.94-1.1,6.91-4.52,7.48-103.35-.14-206.59-1.65-310.02-.94-4.3-.36-7.63-.72-8.39-5.61s-.79-23.89,0-28.87c.51-3.26,2.22-4.98,5.5-5.5,101.09-2.07,203.36,2.86,304.23-.76Z"/>
  <path d="M160.71,462.33l301.78-.2c7.49,1.91,14.01-1.44,15.42,8.58.65,4.62.65,22.75-3.91,24.91l-310.52.52c-10.19-1.12-9.1-14.82-8.46-22.51.37-4.48.65-10.29,5.7-11.3Z"/>
  <path d="M474.72,540.41c4.12,3.38,7.09,30.77-4.2,29.74-96.64,1.37-193.45-1.88-290.07-.07-5.55.1-19.82,3.55-23.5-1.4-3.05-4.1-4.37-31.41,5.53-30.57l303.05-.02c2.27.18,7.57.99,9.19,2.32Z"/>
  <path d="M475.76,266.88c-1.56,1.13-3.39,1.12-5.22,1.28-15.17,1.27-30.96-.88-46-1.08-14.4-.2-37.75,2.11-50.81-.2-8.38-1.48-7.33-16.43-6.72-23.25.46-5.03,1.24-11.55,7.46-11.54l97.8.23c2.24.72,4.22,1.82,4.69,4.31.85,4.43.49,19.96.06,25.02-.15,1.83-.15,3.66-1.28,5.22Z"/>
  <path d="M375.73,311.36c27.95,1.05,58.1-2.22,85.8-.28,3.85.27,11.87.85,13.91,4.09,2.94,4.68,6.35,30.78-3.93,29.97l-98.8-.23c-7.11-1.57-6.22-15.43-5.7-21.27.6-6.64,1.37-11.05,8.72-12.28Z"/>
  <path d="M374.73,387.35l96.33.2c6.33.99,6.81,9.67,6.98,15.01.14,4.68.44,17.76-5.5,17.6-30.78-2.04-64.68,2.55-95.08-.01-4.31-.36-9.17-.86-10.25-5.75-1.43-6.46-2.27-26.59,7.52-27.05Z"/>
  <path class="st0" d="M74.99,169.12v391.5c0,.37-3.01,5.7-3.56,6.44-9.26,12.23-27.31,7.58-31.37-6.5-.51-1.78-2.06-8.62-2.06-9.94V169.12h37Z"/>
</svg>